<svg xmlns="http://www.w3.org/2000/svg" xmlns:xlink="http://www.w3.org/1999/xlink" width="500" zoomAndPan="magnify" viewBox="0 0 375 374.999991" height="500" preserveAspectRatio="xMidYMid meet" version="1.0"><defs><clipPath id="d8cf6305f0"><path d="M 187.5 0 C 83.945312 0 0 83.945312 0 187.5 C 0 291.054688 83.945312 375 187.5 375 C 291.054688 375 375 291.054688 375 187.5 C 375 83.945312 291.054688 0 187.5 0 Z M 187.5 0 " clip-rule="nonzero"/></clipPath><clipPath id="ee72e76182"><path d="M 52.148438 157 L 322.835938 157 L 322.835938 310.84375 L 52.148438 310.84375 Z M 52.148438 157 " clip-rule="nonzero"/></clipPath><clipPath id="30926b8218"><path d="M 51.453125 294.753906 L 323.667969 294.753906 L 323.667969 327.03125 L 51.453125 327.03125 Z M 51.453125 294.753906 " clip-rule="nonzero"/></clipPath><clipPath id="8e08002444"><path d="M 187.5 294.753906 C 112.363281 294.753906 51.453125 301.976562 51.453125 310.890625 C 51.453125 319.804688 112.363281 327.03125 187.5 327.03125 C 262.636719 327.03125 323.546875 319.804688 323.546875 310.890625 C 323.546875 301.976562 262.636719 294.753906 187.5 294.753906 Z M 187.5 294.753906 " clip-rule="nonzero"/></clipPath></defs><g clip-path="url(#d8cf6305f0)"><rect x="-37.5" width="450" fill="#000000" y="-37.499999" height="449.999989" fill-opacity="1"/></g><path fill="#ffffff" d="M 175.085938 48.023438 C 175.003906 48.027344 174.839844 48.027344 174.757812 48.023438 C 167.625 47.953125 161.398438 57.304688 157.527344 67.496094 C 153.601562 77.871094 152.03125 89.023438 152.808594 96.613281 C 153.910156 106.859375 158.523438 112.386719 164.523438 116.824219 C 169.113281 119.980469 171.742188 128.257812 171.429688 136.820312 C 170.824219 153.652344 170.140625 170.367188 169.222656 186.878906 C 172.417969 182.753906 175.957031 178.695312 179.988281 174.742188 C 179.371094 162.191406 178.867188 149.539062 178.410156 136.820312 C 178.097656 128.257812 180.730469 119.980469 185.316406 116.824219 C 191.316406 112.386719 195.933594 106.859375 197.03125 96.613281 C 197.8125 89.023438 196.246094 77.871094 192.3125 67.496094 C 188.445312 57.304688 182.214844 47.953125 175.085938 48.023438 Z M 262.328125 49.847656 C 262.214844 48.808594 261.335938 48.023438 260.289062 48.023438 C 259.152344 48.023438 258.234375 48.945312 258.234375 50.074219 L 258.234375 99.789062 C 258.234375 100.820312 257.539062 101.765625 256.527344 101.976562 C 255.136719 102.269531 253.898438 101.203125 253.898438 99.859375 L 253.898438 50.074219 C 253.898438 48.945312 252.980469 48.023438 251.84375 48.023438 L 250.347656 48.023438 C 249.210938 48.023438 248.289062 48.945312 248.289062 50.074219 L 248.289062 99.789062 C 248.289062 100.820312 247.59375 101.765625 246.582031 101.976562 C 245.195312 102.269531 243.957031 101.203125 243.957031 99.859375 L 243.957031 50.074219 C 243.957031 48.945312 243.035156 48.023438 241.902344 48.023438 L 240.402344 48.023438 C 239.269531 48.023438 238.347656 48.945312 238.347656 50.074219 L 238.347656 99.789062 C 238.347656 100.820312 237.652344 101.765625 236.640625 101.976562 C 235.25 102.269531 234.011719 101.203125 234.011719 99.859375 L 234.011719 50.074219 C 234.011719 48.945312 233.09375 48.023438 231.960938 48.023438 L 230.460938 48.023438 C 229.328125 48.023438 228.40625 48.945312 228.40625 50.074219 L 228.40625 99.789062 C 228.40625 100.820312 227.710938 101.765625 226.699219 101.976562 C 225.308594 102.269531 224.070312 101.203125 224.070312 99.859375 L 224.070312 50.074219 C 224.070312 48.945312 223.152344 48.023438 222.019531 48.023438 C 220.972656 48.023438 220.089844 48.808594 219.976562 49.847656 C 218.917969 59.566406 218.601562 92.324219 219.042969 96.613281 C 220.140625 106.859375 224.757812 112.386719 230.757812 116.824219 C 235.34375 119.980469 237.976562 128.257812 237.660156 136.820312 C 237.613281 138.183594 237.558594 139.542969 237.511719 140.902344 C 239.992188 139.816406 242.378906 138.722656 244.675781 137.644531 C 244.664062 137.367188 244.652344 137.09375 244.644531 136.820312 C 244.332031 128.257812 246.960938 119.980469 251.550781 116.824219 C 257.550781 112.386719 262.164062 106.859375 263.261719 96.613281 C 263.703125 92.324219 263.390625 59.566406 262.328125 49.847656 " fill-opacity="1" fill-rule="nonzero"/><path fill="#80cc28" d="M 271.535156 152.0625 C 271.535156 152.0625 241.09375 230.570312 130.730469 256.625 C 163.148438 220.429688 160.917969 177.242188 229.851562 149.949219 C 265.085938 135.996094 285.339844 120.203125 285.339844 120.203125 C 285.339844 120.203125 284.425781 290.574219 165.121094 257.375 C 165.121094 257.375 242.484375 240.824219 271.535156 152.0625 " fill-opacity="1" fill-rule="nonzero"/><path fill="#40b93c" d="M 98.695312 106.988281 C 98.695312 106.988281 100.851562 159.1875 160.449219 196.574219 C 148.660156 168.832031 158.613281 143.917969 123.597656 114.09375 C 105.695312 98.84375 96.964844 85.515625 96.964844 85.515625 C 96.964844 85.515625 63.398438 185.75 140.105469 190.132812 C 140.105469 190.132812 97.984375 164.925781 98.695312 106.988281 " fill-opacity="1" fill-rule="nonzero"/><g clip-path="url(#ee72e76182)"><path fill="#ffffff" d="M 250.425781 291.808594 L 250.378906 291.757812 L 250.480469 291.851562 C 250.460938 291.847656 250.507812 291.871094 250.425781 291.808594 Z M 124.5 291.835938 L 124.621094 291.722656 L 124.550781 291.796875 C 124.46875 291.859375 124.511719 291.835938 124.5 291.835938 Z M 322.25 157.949219 C 321.832031 161.136719 321.460938 164.308594 321.09375 167.464844 C 320.578125 170.609375 319.914062 173.722656 319.394531 176.835938 C 318.75 179.933594 317.875 182.980469 317.132812 186.03125 C 316.800781 187.566406 316.195312 189.039062 315.734375 190.539062 C 315.230469 192.027344 314.777344 193.527344 314.300781 195.019531 C 313.875 196.523438 313.214844 197.953125 312.660156 199.414062 L 310.933594 203.769531 C 310.40625 205.234375 309.660156 206.617188 309 208.027344 L 306.984375 212.230469 C 306.359375 213.652344 305.515625 214.96875 304.777344 216.328125 L 302.515625 220.386719 C 301.808594 221.761719 300.898438 223.019531 300.070312 224.324219 L 297.539062 228.199219 C 296.742188 229.519531 295.753906 230.710938 294.851562 231.957031 L 292.097656 235.65625 C 291.226562 236.921875 290.136719 238.023438 289.164062 239.207031 L 286.175781 242.699219 C 284.148438 244.992188 281.933594 247.117188 279.832031 249.328125 C 277.644531 251.453125 275.308594 253.429688 273.066406 255.484375 C 270.734375 257.445312 268.300781 259.273438 265.9375 261.179688 C 263.464844 262.949219 260.929688 264.617188 258.445312 266.34375 L 250.644531 270.992188 L 242.554688 275.078125 L 226.5 283.183594 L 243.703125 288.75 L 243.867188 288.804688 C 242.546875 289.179688 241.164062 289.523438 239.78125 289.835938 C 236.53125 290.582031 233.132812 291.164062 229.703125 291.664062 C 222.832031 292.652344 215.800781 293.253906 208.75 293.695312 C 205.21875 293.902344 201.679688 294.0625 198.136719 294.15625 C 194.558594 294.253906 191.144531 294.285156 187.453125 294.285156 C 183.988281 294.292969 180.378906 294.253906 176.851562 294.164062 C 173.308594 294.0625 169.769531 293.910156 166.242188 293.699219 C 159.191406 293.253906 152.15625 292.671875 145.285156 291.675781 C 141.859375 291.175781 138.453125 290.59375 135.203125 289.847656 C 133.796875 289.535156 132.390625 289.1875 131.054688 288.804688 L 131.28125 288.730469 L 148.429688 283.179688 L 132.421875 275.09375 L 124.335938 271.007812 L 116.53125 266.363281 C 114.042969 264.640625 111.507812 262.964844 109.039062 261.199219 C 106.671875 259.296875 104.242188 257.457031 101.90625 255.5 C 99.664062 253.449219 97.328125 251.476562 95.140625 249.347656 C 93.039062 247.132812 90.824219 245.007812 88.796875 242.714844 L 85.808594 239.21875 C 84.832031 238.035156 83.742188 236.933594 82.871094 235.667969 L 80.121094 231.96875 C 79.21875 230.722656 78.230469 229.527344 77.429688 228.214844 L 74.902344 224.335938 C 74.074219 223.03125 73.164062 221.769531 72.453125 220.398438 L 70.195312 216.335938 C 69.449219 214.976562 68.613281 213.660156 67.988281 212.238281 L 65.972656 208.03125 C 65.3125 206.625 64.566406 205.242188 64.042969 203.773438 L 62.3125 199.421875 C 61.757812 197.960938 61.097656 196.527344 60.675781 195.023438 L 59.238281 190.542969 C 58.78125 189.042969 58.175781 187.570312 57.84375 186.035156 C 57.101562 182.984375 56.226562 179.929688 55.585938 176.84375 C 55.070312 173.742188 54.40625 170.648438 53.890625 167.488281 C 53.523438 164.308594 53.15625 161.125 52.742188 157.949219 C 52.554688 161.148438 52.414062 164.347656 52.277344 167.546875 C 52.28125 170.753906 52.417969 173.996094 52.546875 177.25 C 52.765625 180.484375 53.21875 183.683594 53.550781 186.929688 C 53.683594 188.554688 54.085938 190.128906 54.347656 191.738281 L 55.269531 196.542969 C 55.535156 198.160156 56.042969 199.710938 56.445312 201.292969 L 57.734375 206.03125 C 58.113281 207.632812 58.71875 209.152344 59.238281 210.707031 L 60.859375 215.363281 C 61.941406 218.472656 63.394531 221.429688 64.679688 224.46875 C 65.300781 226.003906 66.132812 227.429688 66.878906 228.902344 L 69.179688 233.296875 C 69.898438 234.792969 70.851562 236.144531 71.703125 237.566406 L 74.335938 241.785156 C 75.171875 243.230469 76.226562 244.507812 77.175781 245.875 L 80.09375 249.917969 C 82.113281 252.5625 84.34375 255.035156 86.46875 257.609375 C 88.6875 260.09375 91.070312 262.429688 93.382812 264.851562 C 95.796875 267.15625 98.347656 269.324219 100.839844 271.566406 C 103.4375 273.675781 106.125 275.6875 108.777344 277.75 C 110.433594 278.898438 112.117188 280.011719 113.800781 281.117188 C 113.628906 281.28125 113.457031 281.460938 113.265625 281.679688 C 112.914062 282.074219 112.585938 282.4375 112.226562 282.984375 C 112.050781 283.238281 111.882812 283.492188 111.71875 283.753906 C 111.546875 284.0625 111.386719 284.386719 111.234375 284.707031 C 110.925781 285.308594 110.667969 286.144531 110.480469 286.921875 C 110.386719 287.3125 110.335938 287.765625 110.296875 288.191406 L 110.25 288.84375 L 110.242188 289.003906 C 110.226562 288.863281 110.359375 290.921875 110.304688 290.066406 L 110.316406 290.152344 L 110.351562 290.488281 L 110.375 290.65625 L 110.386719 290.765625 L 110.464844 291.148438 C 110.671875 292.152344 111.078125 293.285156 111.5 294.082031 C 111.808594 294.621094 112.144531 295.152344 112.507812 295.660156 C 112.859375 296.144531 113.167969 296.460938 113.519531 296.851562 C 113.691406 297.035156 113.875 297.230469 114.042969 297.390625 L 114.511719 297.808594 C 114.824219 298.082031 115.15625 298.363281 115.472656 298.613281 L 116.359375 299.242188 C 117.550781 300.058594 118.632812 300.632812 119.695312 301.160156 C 123.894531 303.167969 127.691406 304.25 131.511719 305.253906 C 135.324219 306.207031 139.078125 306.921875 142.824219 307.542969 C 150.3125 308.75 157.753906 309.597656 165.195312 310.070312 C 168.917969 310.316406 172.636719 310.503906 176.351562 310.628906 C 180.082031 310.75 183.738281 310.816406 187.535156 310.835938 C 191.109375 310.828125 194.957031 310.753906 198.640625 310.632812 C 202.355469 310.507812 206.074219 310.320312 209.796875 310.074219 C 217.238281 309.601562 224.675781 308.773438 232.167969 307.554688 C 235.914062 306.929688 239.667969 306.21875 243.480469 305.265625 C 247.304688 304.277344 251.101562 303.183594 255.304688 301.175781 C 256.363281 300.648438 257.449219 300.070312 258.640625 299.253906 L 259.527344 298.628906 C 259.84375 298.378906 260.175781 298.09375 260.488281 297.824219 L 260.960938 297.402344 C 261.128906 297.242188 261.3125 297.046875 261.480469 296.867188 C 261.835938 296.472656 262.140625 296.15625 262.496094 295.671875 C 262.855469 295.164062 263.195312 294.632812 263.503906 294.089844 C 263.828125 293.457031 264.121094 292.707031 264.347656 291.992188 C 264.574219 291.253906 264.691406 290.324219 264.746094 289.488281 L 264.761719 289.164062 C 264.792969 289.757812 264.726562 288.167969 264.730469 288.328125 L 264.726562 288.285156 L 264.703125 288.113281 L 264.6875 287.949219 L 264.632812 287.550781 C 264.480469 286.492188 264.035156 285.164062 263.773438 284.699219 C 263.621094 284.375 263.457031 284.054688 263.285156 283.746094 C 263.125 283.484375 262.953125 283.226562 262.777344 282.972656 C 262.414062 282.429688 262.085938 282.0625 261.734375 281.667969 C 261.554688 281.453125 261.382812 281.28125 261.21875 281.121094 C 262.902344 280.019531 264.578125 278.914062 266.226562 277.769531 C 268.878906 275.707031 271.5625 273.695312 274.164062 271.585938 C 276.65625 269.34375 279.203125 267.171875 281.625 264.871094 C 283.933594 262.449219 286.320312 260.109375 288.539062 257.625 C 290.664062 255.054688 292.894531 252.578125 294.914062 249.933594 L 297.835938 245.890625 C 298.777344 244.523438 299.835938 243.242188 300.671875 241.804688 L 303.300781 237.578125 C 304.152344 236.160156 305.109375 234.804688 305.832031 233.308594 L 308.128906 228.914062 C 308.878906 227.441406 309.707031 226.015625 310.324219 224.476562 L 312.308594 219.949219 C 312.953125 218.433594 313.652344 216.949219 314.148438 215.371094 L 315.769531 210.714844 C 316.289062 209.160156 316.894531 207.640625 317.273438 206.039062 L 318.558594 201.296875 C 318.960938 199.714844 319.464844 198.164062 319.730469 196.546875 C 320.339844 193.335938 321.039062 190.152344 321.449219 186.929688 C 321.78125 183.6875 322.234375 180.480469 322.449219 177.253906 C 322.578125 174.015625 322.710938 170.789062 322.714844 167.574219 C 322.578125 164.347656 322.4375 161.140625 322.25 157.949219 " fill-opacity="1" fill-rule="nonzero"/></g><g clip-path="url(#30926b8218)"><g clip-path="url(#8e08002444)"><path fill="#ffffff" d="M 51.453125 294.753906 L 323.542969 294.753906 L 323.542969 327.03125 L 51.453125 327.03125 Z M 51.453125 294.753906 " fill-opacity="1" fill-rule="nonzero"/></g></g></svg>