<svg xmlns="http://www.w3.org/2000/svg" xmlns:xlink="http://www.w3.org/1999/xlink" width="500" zoomAndPan="magnify" viewBox="0 0 375 135.000003" height="180" preserveAspectRatio="xMidYMid meet" version="1.0"><defs><g/><clipPath id="5cf3e416cd"><path d="M 49 0.582031 L 103 0.582031 L 103 67 L 49 67 Z M 49 0.582031 " clip-rule="nonzero"/></clipPath><clipPath id="2bc1fa50f2"><path d="M 1.710938 53 L 131.25 53 L 131.25 126.398438 L 1.710938 126.398438 Z M 1.710938 53 " clip-rule="nonzero"/></clipPath><clipPath id="8ffa0cd97d"><path d="M 1.378906 118.574219 L 131.535156 118.574219 L 131.535156 134.007812 L 1.378906 134.007812 Z M 1.378906 118.574219 " clip-rule="nonzero"/></clipPath><clipPath id="341b67bee0"><path d="M 66.425781 118.574219 C 30.5 118.574219 1.378906 122.027344 1.378906 126.289062 C 1.378906 130.550781 30.5 134.007812 66.425781 134.007812 C 102.351562 134.007812 131.476562 130.550781 131.476562 126.289062 C 131.476562 122.027344 102.351562 118.574219 66.425781 118.574219 Z M 66.425781 118.574219 " clip-rule="nonzero"/></clipPath></defs><g clip-path="url(#5cf3e416cd)"><path fill="#000000" d="M 60.488281 0.605469 C 60.449219 0.609375 60.371094 0.609375 60.332031 0.605469 C 56.921875 0.574219 53.945312 5.042969 52.09375 9.917969 C 50.21875 14.878906 49.464844 20.207031 49.839844 23.835938 C 50.367188 28.734375 52.570312 31.378906 55.441406 33.5 C 57.632812 35.007812 58.890625 38.96875 58.742188 43.058594 C 58.453125 51.105469 58.125 59.097656 57.6875 66.992188 C 59.214844 65.019531 60.90625 63.082031 62.832031 61.191406 C 62.539062 55.1875 62.296875 49.140625 62.078125 43.058594 C 61.929688 38.96875 63.1875 35.007812 65.382812 33.5 C 68.25 31.378906 70.457031 28.734375 70.980469 23.835938 C 71.355469 20.207031 70.605469 14.878906 68.726562 9.917969 C 66.875 5.042969 63.898438 0.574219 60.488281 0.605469 Z M 102.199219 1.476562 C 102.144531 0.980469 101.726562 0.605469 101.226562 0.605469 C 100.683594 0.605469 100.242188 1.046875 100.242188 1.585938 L 100.242188 25.355469 C 100.242188 25.847656 99.910156 26.300781 99.425781 26.402344 C 98.761719 26.539062 98.167969 26.03125 98.167969 25.390625 L 98.167969 1.585938 C 98.167969 1.046875 97.730469 0.605469 97.1875 0.605469 L 96.472656 0.605469 C 95.929688 0.605469 95.488281 1.046875 95.488281 1.585938 L 95.488281 25.355469 C 95.488281 25.847656 95.15625 26.300781 94.671875 26.402344 C 94.007812 26.539062 93.417969 26.03125 93.417969 25.390625 L 93.417969 1.585938 C 93.417969 1.046875 92.976562 0.605469 92.433594 0.605469 L 91.71875 0.605469 C 91.175781 0.605469 90.734375 1.046875 90.734375 1.585938 L 90.734375 25.355469 C 90.734375 25.847656 90.402344 26.300781 89.917969 26.402344 C 89.253906 26.539062 88.664062 26.03125 88.664062 25.390625 L 88.664062 1.585938 C 88.664062 1.046875 88.222656 0.605469 87.683594 0.605469 L 86.964844 0.605469 C 86.421875 0.605469 85.980469 1.046875 85.980469 1.585938 L 85.980469 25.355469 C 85.980469 25.847656 85.648438 26.300781 85.167969 26.402344 C 84.5 26.539062 83.910156 26.03125 83.910156 25.390625 L 83.910156 1.585938 C 83.910156 1.046875 83.46875 0.605469 82.929688 0.605469 C 82.429688 0.605469 82.007812 0.980469 81.953125 1.476562 C 81.445312 6.125 81.292969 21.785156 81.503906 23.835938 C 82.03125 28.734375 84.238281 31.378906 87.105469 33.5 C 89.300781 35.007812 90.558594 38.96875 90.40625 43.058594 C 90.382812 43.710938 90.359375 44.359375 90.335938 45.011719 C 91.523438 44.492188 92.664062 43.96875 93.761719 43.453125 C 93.753906 43.320312 93.75 43.191406 93.746094 43.058594 C 93.597656 38.96875 94.855469 35.007812 97.046875 33.5 C 99.917969 31.378906 102.121094 28.734375 102.644531 23.835938 C 102.855469 21.785156 102.707031 6.125 102.199219 1.476562 " fill-opacity="1" fill-rule="nonzero"/></g><path fill="#80cc28" d="M 106.601562 50.347656 C 106.601562 50.347656 92.050781 87.882812 39.28125 100.339844 C 54.78125 83.03125 53.714844 62.386719 86.671875 49.335938 C 103.519531 42.667969 113.203125 35.113281 113.203125 35.113281 C 113.203125 35.113281 112.765625 116.570312 55.726562 100.699219 C 55.726562 100.699219 92.714844 92.785156 106.601562 50.347656 " fill-opacity="1" fill-rule="nonzero"/><path fill="#40b93c" d="M 23.964844 28.796875 C 23.964844 28.796875 25 53.753906 53.492188 71.628906 C 47.855469 58.367188 52.613281 46.453125 35.871094 32.195312 C 27.316406 24.902344 23.140625 18.53125 23.140625 18.53125 C 23.140625 18.53125 7.089844 66.453125 43.765625 68.550781 C 43.765625 68.550781 23.628906 56.496094 23.964844 28.796875 " fill-opacity="1" fill-rule="nonzero"/><g clip-path="url(#2bc1fa50f2)"><path fill="#000000" d="M 96.507812 117.160156 L 96.488281 117.136719 L 96.535156 117.179688 C 96.527344 117.179688 96.546875 117.191406 96.507812 117.160156 Z M 36.304688 117.171875 L 36.363281 117.117188 L 36.328125 117.152344 C 36.289062 117.183594 36.3125 117.171875 36.304688 117.171875 Z M 130.847656 53.160156 C 130.648438 54.683594 130.472656 56.203125 130.296875 57.710938 C 130.050781 59.214844 129.734375 60.703125 129.484375 62.191406 C 129.175781 63.671875 128.757812 65.128906 128.402344 66.589844 C 128.246094 67.324219 127.953125 68.027344 127.734375 68.742188 C 127.492188 69.457031 127.277344 70.171875 127.046875 70.886719 C 126.847656 71.605469 126.53125 72.289062 126.261719 72.988281 L 125.4375 75.070312 C 125.1875 75.769531 124.832031 76.429688 124.515625 77.105469 L 123.550781 79.113281 C 123.253906 79.792969 122.847656 80.421875 122.496094 81.074219 L 121.414062 83.011719 C 121.078125 83.671875 120.640625 84.273438 120.246094 84.894531 L 119.035156 86.75 C 118.65625 87.378906 118.183594 87.949219 117.75 88.546875 L 116.433594 90.3125 C 116.015625 90.917969 115.496094 91.445312 115.03125 92.011719 L 113.601562 93.679688 C 112.632812 94.777344 111.574219 95.792969 110.570312 96.851562 C 109.523438 97.867188 108.40625 98.808594 107.335938 99.792969 C 106.21875 100.730469 105.054688 101.605469 103.925781 102.515625 C 102.746094 103.363281 101.53125 104.160156 100.34375 104.984375 L 96.613281 107.207031 L 92.746094 109.160156 L 85.070312 113.035156 L 93.296875 115.699219 L 93.375 115.726562 C 92.742188 115.902344 92.082031 116.066406 91.421875 116.21875 C 89.867188 116.574219 88.242188 116.851562 86.601562 117.089844 C 83.316406 117.5625 79.953125 117.851562 76.582031 118.0625 C 74.894531 118.160156 73.203125 118.238281 71.511719 118.28125 C 69.800781 118.328125 68.167969 118.34375 66.402344 118.34375 C 64.746094 118.347656 63.019531 118.328125 61.335938 118.285156 C 59.640625 118.238281 57.949219 118.164062 56.261719 118.0625 C 52.890625 117.851562 49.527344 117.574219 46.242188 117.097656 C 44.605469 116.859375 42.976562 116.578125 41.421875 116.222656 C 40.75 116.074219 40.078125 115.90625 39.4375 115.726562 L 39.546875 115.6875 L 47.746094 113.035156 L 40.09375 109.167969 L 36.226562 107.214844 L 32.496094 104.996094 C 31.304688 104.171875 30.09375 103.371094 28.914062 102.523438 C 27.78125 101.617188 26.621094 100.738281 25.503906 99.800781 C 24.429688 98.820312 23.3125 97.875 22.265625 96.859375 C 21.261719 95.800781 20.203125 94.785156 19.234375 93.6875 L 17.804688 92.015625 C 17.339844 91.453125 16.820312 90.925781 16.402344 90.320312 L 15.085938 88.550781 C 14.65625 87.953125 14.183594 87.382812 13.800781 86.753906 L 12.59375 84.902344 C 12.195312 84.277344 11.761719 83.675781 11.421875 83.019531 L 10.339844 81.078125 C 9.984375 80.425781 9.585938 79.796875 9.285156 79.117188 L 8.320312 77.105469 C 8.007812 76.433594 7.648438 75.773438 7.398438 75.070312 L 6.574219 72.988281 C 6.308594 72.292969 5.992188 71.605469 5.789062 70.886719 L 5.101562 68.746094 C 4.882812 68.027344 4.59375 67.324219 4.433594 66.589844 C 4.082031 65.128906 3.664062 63.671875 3.359375 62.195312 C 3.109375 60.710938 2.792969 59.234375 2.546875 57.722656 C 2.371094 56.203125 2.195312 54.679688 1.996094 53.160156 C 1.90625 54.691406 1.839844 56.222656 1.773438 57.75 C 1.777344 59.285156 1.839844 60.832031 1.902344 62.390625 C 2.007812 63.933594 2.226562 65.464844 2.382812 67.015625 C 2.445312 67.796875 2.640625 68.546875 2.765625 69.316406 L 3.207031 71.613281 C 3.332031 72.386719 3.574219 73.128906 3.769531 73.882812 L 4.382812 76.148438 C 4.566406 76.914062 4.855469 77.640625 5.101562 78.386719 L 5.878906 80.613281 C 6.394531 82.097656 7.089844 83.511719 7.703125 84.964844 C 8 85.699219 8.398438 86.382812 8.753906 87.085938 L 9.855469 89.1875 C 10.199219 89.902344 10.65625 90.546875 11.0625 91.226562 L 12.320312 93.246094 C 12.71875 93.933594 13.226562 94.546875 13.679688 95.199219 L 15.074219 97.132812 C 16.039062 98.398438 17.105469 99.578125 18.121094 100.808594 C 19.183594 101.996094 20.324219 103.113281 21.425781 104.273438 C 22.582031 105.375 23.800781 106.410156 24.992188 107.484375 C 26.234375 108.488281 27.519531 109.453125 28.785156 110.4375 C 29.578125 110.988281 30.382812 111.519531 31.191406 112.050781 C 31.109375 112.128906 31.023438 112.210938 30.933594 112.316406 C 30.765625 112.503906 30.609375 112.679688 30.4375 112.941406 C 30.351562 113.0625 30.273438 113.183594 30.195312 113.308594 C 30.113281 113.457031 30.035156 113.613281 29.960938 113.765625 C 29.8125 114.054688 29.691406 114.453125 29.601562 114.824219 C 29.558594 115.011719 29.53125 115.226562 29.511719 115.429688 L 29.492188 115.742188 L 29.488281 115.820312 C 29.480469 115.753906 29.542969 116.734375 29.519531 116.328125 L 29.523438 116.367188 L 29.539062 116.53125 L 29.550781 116.609375 L 29.558594 116.660156 L 29.59375 116.84375 C 29.691406 117.324219 29.886719 117.867188 30.089844 118.246094 C 30.234375 118.503906 30.398438 118.757812 30.570312 119.003906 C 30.738281 119.234375 30.886719 119.382812 31.054688 119.570312 C 31.136719 119.660156 31.222656 119.753906 31.304688 119.828125 L 31.527344 120.027344 C 31.679688 120.160156 31.835938 120.292969 31.988281 120.414062 L 32.414062 120.714844 C 32.980469 121.105469 33.5 121.378906 34.007812 121.632812 C 36.015625 122.589844 37.832031 123.109375 39.65625 123.589844 C 41.480469 124.042969 43.273438 124.386719 45.066406 124.683594 C 48.644531 125.261719 52.203125 125.664062 55.761719 125.890625 C 57.539062 126.007812 59.316406 126.097656 61.09375 126.160156 C 62.878906 126.214844 64.628906 126.25 66.441406 126.257812 C 68.152344 126.253906 69.992188 126.21875 71.75 126.160156 C 73.527344 126.101562 75.304688 126.011719 77.085938 125.894531 C 80.640625 125.667969 84.199219 125.269531 87.78125 124.6875 C 89.574219 124.390625 91.367188 124.050781 93.1875 123.59375 C 95.019531 123.121094 96.832031 122.597656 98.84375 121.640625 C 99.347656 121.386719 99.867188 121.109375 100.4375 120.71875 L 100.863281 120.421875 C 101.011719 120.300781 101.171875 120.164062 101.320312 120.035156 L 101.546875 119.835938 C 101.628906 119.757812 101.714844 119.664062 101.796875 119.578125 C 101.964844 119.390625 102.113281 119.238281 102.28125 119.007812 C 102.453125 118.761719 102.617188 118.511719 102.761719 118.25 C 102.917969 117.949219 103.058594 117.589844 103.167969 117.246094 C 103.273438 116.894531 103.332031 116.449219 103.355469 116.050781 L 103.363281 115.894531 C 103.378906 116.179688 103.347656 115.421875 103.347656 115.496094 L 103.347656 115.476562 L 103.335938 115.394531 L 103.328125 115.3125 L 103.300781 115.125 C 103.230469 114.617188 103.015625 113.984375 102.890625 113.761719 C 102.816406 113.605469 102.738281 113.453125 102.65625 113.304688 C 102.582031 113.179688 102.5 113.058594 102.414062 112.9375 C 102.242188 112.675781 102.085938 112.5 101.917969 112.3125 C 101.832031 112.210938 101.75 112.128906 101.667969 112.050781 C 102.476562 111.523438 103.277344 110.996094 104.066406 110.449219 C 105.332031 109.460938 106.617188 108.5 107.859375 107.492188 C 109.050781 106.417969 110.269531 105.378906 111.425781 104.28125 C 112.53125 103.125 113.671875 102.003906 114.730469 100.816406 C 115.746094 99.585938 116.8125 98.402344 117.78125 97.140625 L 119.175781 95.207031 C 119.628906 94.554688 120.132812 93.941406 120.53125 93.253906 L 121.789062 91.230469 C 122.199219 90.554688 122.652344 89.90625 123 89.191406 L 124.097656 87.089844 C 124.457031 86.386719 124.851562 85.703125 125.148438 84.96875 L 126.097656 82.804688 C 126.402344 82.078125 126.738281 81.371094 126.976562 80.617188 L 127.75 78.390625 C 128 77.644531 128.289062 76.917969 128.46875 76.152344 L 129.082031 73.886719 C 129.277344 73.128906 129.519531 72.386719 129.644531 71.613281 C 129.9375 70.082031 130.269531 68.558594 130.464844 67.015625 C 130.625 65.46875 130.839844 63.933594 130.945312 62.390625 C 131.003906 60.84375 131.070312 59.300781 131.074219 57.765625 C 131.007812 56.222656 130.9375 54.6875 130.847656 53.160156 " fill-opacity="1" fill-rule="nonzero"/></g><g clip-path="url(#8ffa0cd97d)"><g clip-path="url(#341b67bee0)"><path fill="#000000" d="M 1.378906 118.574219 L 131.472656 118.574219 L 131.472656 134.007812 L 1.378906 134.007812 Z M 1.378906 118.574219 " fill-opacity="1" fill-rule="nonzero"/></g></g><g fill="#40b93c" fill-opacity="1"><g transform="translate(132.752308, 119.637903)"><g><path d="M 30.492188 -38.773438 C 26.433594 -38.664062 22.210938 -37.730469 18.207031 -36.03125 C 16.398438 -35.207031 14.640625 -34.273438 13.050781 -33.070312 C 10.53125 -31.203125 8.226562 -29.011719 6.25 -26.542969 C 4.003906 -23.746094 2.304688 -20.621094 1.152344 -17.21875 C 0.546875 -15.464844 0.109375 -13.65625 0.0546875 -11.84375 C -0.0546875 -9.542969 0.164062 -7.183594 0.933594 -4.992188 C 1.207031 -4.167969 1.535156 -3.398438 1.972656 -2.742188 C 3.125 -0.933594 4.769531 0.109375 6.910156 0.273438 C 9.378906 0.492188 11.679688 -0.0546875 13.65625 -1.644531 C 14.808594 -2.523438 15.792969 -3.511719 16.671875 -4.605469 C 17.824219 -6.140625 18.917969 -7.675781 20.015625 -9.269531 C 20.730469 -10.199219 21.332031 -11.1875 21.992188 -12.121094 C 22.539062 -12.886719 23.746094 -12.941406 24.402344 -12.230469 C 24.570312 -12.011719 24.734375 -11.84375 24.84375 -11.625 C 25.941406 -10.253906 26.871094 -8.773438 27.53125 -7.128906 C 28.078125 -5.757812 28.792969 -4.441406 29.558594 -3.179688 C 31.039062 -0.65625 32.792969 1.644531 34.769531 3.785156 C 36.03125 5.210938 37.566406 6.085938 39.320312 6.691406 C 39.8125 6.800781 40.308594 6.855469 40.800781 6.855469 C 41.515625 6.910156 42.226562 6.304688 42.390625 5.539062 C 42.5 4.9375 42.117188 4.113281 41.570312 3.839844 C 41.183594 3.675781 40.800781 3.566406 40.363281 3.398438 C 39.046875 2.960938 37.894531 2.195312 36.90625 1.097656 C 35.261719 -0.878906 33.671875 -2.90625 32.355469 -5.101562 C 31.917969 -5.921875 31.476562 -6.691406 31.09375 -7.511719 C 30.4375 -8.828125 29.777344 -10.199219 29.121094 -11.515625 C 29.011719 -11.679688 28.957031 -11.84375 28.847656 -11.957031 C 28.738281 -12.285156 28.902344 -12.722656 29.175781 -12.777344 C 29.613281 -12.886719 29.996094 -12.996094 30.382812 -13.050781 C 33.289062 -13.4375 35.8125 -14.53125 38.003906 -16.507812 C 38.222656 -16.726562 38.496094 -16.890625 38.773438 -17.109375 C 40.308594 -18.371094 41.625 -19.90625 42.664062 -21.605469 C 43.597656 -23.085938 44.367188 -24.679688 44.75 -26.378906 C 45.296875 -28.460938 45.078125 -30.546875 44.144531 -32.410156 C 42.777344 -35.152344 40.691406 -37.070312 37.675781 -37.839844 C 35.425781 -38.441406 33.125 -38.71875 30.492188 -38.773438 Z M 3.511719 -10.308594 C 3.398438 -12.449219 3.785156 -14.476562 4.496094 -16.453125 C 5.703125 -19.742188 7.402344 -22.757812 9.761719 -25.390625 C 10.914062 -26.707031 12.121094 -27.914062 13.492188 -29.066406 C 16.671875 -31.808594 20.402344 -33.5625 24.511719 -34.496094 C 26.433594 -34.988281 28.40625 -35.261719 30.4375 -35.371094 C 31.257812 -35.371094 32.082031 -35.371094 32.902344 -35.152344 C 33.234375 -34.988281 33.453125 -34.605469 33.234375 -34.386719 C 32.960938 -34.054688 32.738281 -33.726562 32.464844 -33.398438 C 30.710938 -31.367188 29.121094 -29.230469 27.640625 -27.035156 C 25.828125 -24.292969 23.910156 -21.550781 22.046875 -18.808594 C 21.828125 -18.535156 21.660156 -18.261719 21.386719 -18.097656 C 21.222656 -17.933594 20.894531 -17.878906 20.730469 -17.933594 C 20.179688 -18.152344 19.632812 -18.425781 19.195312 -18.753906 C 18.152344 -19.578125 17.21875 -20.511719 16.5625 -21.714844 C 16.289062 -22.101562 16.011719 -22.539062 15.738281 -22.921875 C 15.355469 -23.417969 14.476562 -23.527344 13.875 -23.199219 C 13.214844 -22.867188 12.777344 -21.9375 12.996094 -21.332031 C 13.4375 -20.070312 14.148438 -18.917969 15.027344 -17.933594 C 15.957031 -17 16.890625 -16.011719 18.042969 -15.355469 C 19.414062 -14.585938 19.304688 -14.3125 18.480469 -13.050781 C 17.824219 -12.066406 17.21875 -11.132812 16.5625 -10.144531 C 15.683594 -8.9375 14.753906 -7.789062 13.875 -6.582031 C 13.160156 -5.703125 12.394531 -4.992188 11.570312 -4.332031 C 10.363281 -3.398438 9.046875 -3.070312 7.566406 -3.125 C 6.363281 -3.125 5.375 -3.730469 4.714844 -4.824219 C 4.167969 -5.757812 3.839844 -6.746094 3.730469 -7.84375 C 3.621094 -8.664062 3.566406 -9.488281 3.511719 -10.308594 Z M 27.367188 -16.179688 C 26.871094 -16.234375 26.214844 -16.34375 25.554688 -16.398438 C 25.117188 -16.507812 24.953125 -16.945312 25.226562 -17.382812 C 25.28125 -17.4375 25.335938 -17.492188 25.335938 -17.605469 C 28.078125 -21.441406 30.546875 -25.445312 33.453125 -29.230469 C 34.054688 -29.996094 34.660156 -30.765625 35.371094 -31.476562 C 35.976562 -32.136719 36.742188 -32.683594 37.457031 -33.234375 C 38.332031 -33.835938 38.828125 -33.78125 39.59375 -32.960938 C 40.253906 -32.300781 40.800781 -31.589844 41.128906 -30.710938 C 41.734375 -29.285156 41.789062 -27.859375 41.238281 -26.378906 C 40.199219 -23.746094 38.71875 -21.550781 36.578125 -19.742188 C 36.195312 -19.414062 35.757812 -19.140625 35.425781 -18.808594 C 33.835938 -17.4375 32.027344 -16.78125 29.996094 -16.453125 C 29.175781 -16.34375 28.351562 -16.289062 27.367188 -16.179688 Z M 27.367188 -16.179688 "/></g></g><g transform="translate(171.908302, 119.637903)"><g><path d="M 0.601562 -3.234375 C 0.65625 -3.675781 0.714844 -4.058594 0.824219 -4.386719 C 0.933594 -4.769531 1.097656 -5.15625 1.261719 -5.539062 C 1.863281 -6.855469 2.851562 -8.007812 3.785156 -9.160156 C 4.167969 -9.597656 4.660156 -9.925781 5.046875 -10.308594 C 6.140625 -11.351562 7.238281 -12.339844 8.5 -13.050781 C 9.433594 -13.601562 10.308594 -13.984375 11.296875 -14.257812 C 11.957031 -14.421875 12.558594 -14.585938 13.214844 -14.476562 C 13.546875 -14.421875 13.65625 -14.3125 13.546875 -14.039062 C 13.492188 -13.820312 13.382812 -13.601562 13.269531 -13.4375 C 12.941406 -12.722656 13.105469 -11.898438 13.710938 -11.40625 C 14.367188 -10.914062 15.246094 -10.914062 15.792969 -11.460938 C 16.289062 -11.957031 16.5625 -12.558594 16.726562 -13.269531 C 16.835938 -13.820312 16.835938 -14.421875 16.726562 -15.027344 C 16.5625 -15.902344 16.125 -16.5625 15.464844 -17 C 14.421875 -17.769531 13.214844 -17.933594 11.957031 -17.714844 C 10.144531 -17.4375 8.445312 -16.78125 6.800781 -15.847656 C 5.703125 -15.136719 4.660156 -14.367188 3.675781 -13.492188 C 3.179688 -13.050781 2.632812 -12.613281 2.140625 -12.121094 C 1.863281 -11.898438 1.589844 -11.625 1.371094 -11.296875 C 0.878906 -10.695312 0.328125 -10.089844 -0.109375 -9.433594 C -0.492188 -8.882812 -0.933594 -8.390625 -1.207031 -7.789062 C -1.917969 -6.472656 -2.46875 -5.101562 -2.578125 -3.621094 C -2.6875 -3.015625 -2.632812 -2.359375 -2.414062 -1.863281 C -2.195312 -1.371094 -1.753906 -0.933594 -1.371094 -0.492188 C -1.261719 -0.382812 -1.042969 -0.328125 -0.824219 -0.21875 C -0.601562 -0.164062 -0.328125 -0.0546875 -0.0546875 -0.0546875 C 0.492188 0 1.097656 0.0546875 1.589844 -0.0546875 C 2.304688 -0.273438 3.015625 -0.601562 3.675781 -0.988281 C 4.496094 -1.480469 5.265625 -2.140625 6.085938 -2.6875 C 6.195312 -2.796875 6.304688 -2.851562 6.472656 -2.960938 C 6.636719 -1.972656 7.183594 -1.261719 8.0625 -0.65625 C 9.046875 0.109375 10.199219 0.109375 11.351562 -0.21875 C 12.011719 -0.382812 12.613281 -0.714844 13.214844 -1.097656 C 14.09375 -1.699219 14.972656 -2.359375 15.792969 -2.960938 C 16.890625 -3.785156 17.824219 -4.769531 18.753906 -5.757812 C 19.140625 -6.085938 19.46875 -6.472656 19.796875 -6.855469 C 20.511719 -7.675781 21.222656 -8.445312 21.9375 -9.269531 C 22.539062 -9.980469 22.429688 -11.023438 21.714844 -11.570312 C 21.003906 -12.175781 20.070312 -12.066406 19.414062 -11.351562 C 18.480469 -10.308594 17.550781 -9.214844 16.617188 -8.171875 C 16.34375 -7.84375 16.011719 -7.511719 15.683594 -7.238281 C 15.027344 -6.636719 14.367188 -6.03125 13.65625 -5.429688 C 12.777344 -4.605469 11.734375 -3.894531 10.640625 -3.398438 C 10.472656 -3.34375 10.308594 -3.289062 10.144531 -3.289062 C 9.816406 -3.234375 9.597656 -3.398438 9.707031 -3.730469 C 9.761719 -4.113281 9.871094 -4.496094 10.089844 -4.878906 C 10.472656 -5.429688 10.859375 -5.976562 11.242188 -6.527344 C 11.84375 -7.183594 12.449219 -7.84375 12.996094 -8.554688 C 13.214844 -8.882812 13.4375 -9.214844 13.601562 -9.597656 C 13.875 -10.253906 13.601562 -10.96875 13.050781 -11.40625 C 12.503906 -11.789062 11.734375 -11.84375 11.1875 -11.460938 C 10.859375 -11.242188 10.585938 -11.023438 10.308594 -10.804688 C 9.324219 -9.925781 8.335938 -9.046875 7.347656 -8.171875 C 6.25 -7.183594 5.210938 -6.195312 4.058594 -5.265625 C 3.34375 -4.660156 2.578125 -4.113281 1.753906 -3.621094 C 1.480469 -3.453125 1.097656 -3.234375 0.601562 -3.234375 Z M 0.601562 -3.234375 "/></g></g><g transform="translate(189.621728, 119.637903)"><g><path d="M 8.664062 -3.511719 C 8.664062 -3.289062 8.664062 -3.179688 8.664062 -3.070312 C 8.773438 -2.578125 8.828125 -2.082031 9.046875 -1.589844 C 9.269531 -1.261719 9.652344 -0.988281 9.925781 -0.65625 C 10.53125 0.0546875 11.351562 0.273438 12.175781 0.328125 C 13.050781 0.328125 13.984375 0.164062 14.753906 -0.273438 C 15.082031 -0.492188 15.410156 -0.65625 15.738281 -0.878906 C 16.945312 -1.699219 18.097656 -2.523438 19.140625 -3.566406 C 19.90625 -4.332031 20.730469 -5.15625 21.441406 -5.921875 C 22.15625 -6.691406 22.8125 -7.402344 23.417969 -8.171875 C 24.019531 -8.882812 23.855469 -9.925781 23.144531 -10.472656 C 22.429688 -11.023438 21.441406 -10.859375 20.785156 -10.089844 C 20.457031 -9.652344 20.070312 -9.214844 19.6875 -8.828125 C 18.589844 -7.621094 17.492188 -6.472656 16.289062 -5.375 C 15.410156 -4.550781 14.421875 -3.894531 13.4375 -3.234375 C 13.160156 -3.070312 12.832031 -3.015625 12.503906 -2.960938 C 12.175781 -2.90625 11.898438 -3.179688 11.957031 -3.511719 C 12.011719 -3.675781 12.066406 -3.894531 12.121094 -4.058594 C 12.558594 -5.484375 13.269531 -6.855469 13.984375 -8.171875 C 14.476562 -9.046875 15.136719 -9.816406 15.738281 -10.585938 C 16.125 -11.132812 16.507812 -11.625 16.890625 -12.175781 C 17.605469 -13.160156 18.261719 -14.203125 18.976562 -15.136719 C 19.632812 -16.066406 20.402344 -16.890625 21.113281 -17.769531 C 21.9375 -18.808594 22.757812 -19.851562 23.582031 -20.894531 C 23.964844 -21.386719 24.347656 -21.882812 24.734375 -22.375 C 25.117188 -22.867188 25.5 -23.417969 25.941406 -23.910156 C 27.035156 -25.171875 28.023438 -26.542969 29.066406 -27.859375 C 29.394531 -28.296875 29.722656 -28.738281 30.105469 -29.121094 C 30.710938 -29.832031 30.710938 -30.765625 30.105469 -31.421875 C 29.503906 -32.082031 28.460938 -32.136719 27.75 -31.53125 C 27.308594 -31.09375 26.871094 -30.65625 26.433594 -30.164062 C 25.445312 -29.011719 24.402344 -27.804688 23.417969 -26.597656 C 22.867188 -25.996094 22.375 -25.390625 21.882812 -24.789062 C 21.332031 -24.128906 20.839844 -23.363281 20.234375 -22.703125 C 19.578125 -21.828125 18.808594 -21.003906 18.207031 -20.070312 C 17.4375 -18.808594 16.617188 -17.605469 15.792969 -16.398438 C 15.683594 -16.179688 15.464844 -16.011719 15.300781 -15.792969 C 14.421875 -16.671875 13.382812 -17 12.230469 -17.054688 C 11.023438 -17.109375 9.816406 -16.945312 8.71875 -16.507812 C 7.953125 -16.179688 7.238281 -15.792969 6.527344 -15.355469 C 5.921875 -15.027344 5.375 -14.585938 4.824219 -14.203125 C 3.785156 -13.4375 2.851562 -12.558594 2.027344 -11.570312 C 1.753906 -11.296875 1.535156 -11.023438 1.316406 -10.695312 C 0.933594 -10.089844 0.601562 -9.433594 0.21875 -8.882812 C -0.4375 -7.953125 -0.988281 -6.910156 -1.316406 -5.867188 C -1.480469 -5.265625 -1.589844 -4.605469 -1.753906 -4.003906 C -1.917969 -3.398438 -1.863281 -2.796875 -1.699219 -2.195312 C -1.535156 -1.699219 -1.316406 -1.207031 -0.988281 -0.824219 C -0.382812 -0.109375 0.4375 0.164062 1.261719 0.273438 C 2.523438 0.382812 3.621094 -0.0546875 4.605469 -0.601562 C 5.429688 -1.042969 6.140625 -1.589844 6.910156 -2.082031 C 7.183594 -2.25 7.402344 -2.414062 7.675781 -2.632812 C 7.953125 -2.90625 8.28125 -3.179688 8.664062 -3.511719 Z M 13.214844 -13.492188 C 12.394531 -12.503906 11.625 -11.570312 10.859375 -10.640625 C 10.417969 -10.144531 10.035156 -9.597656 9.597656 -9.160156 C 8.28125 -7.675781 6.964844 -6.304688 5.539062 -5.046875 C 4.992188 -4.605469 4.386719 -4.222656 3.785156 -3.894531 C 3.289062 -3.566406 2.796875 -3.34375 2.25 -3.070312 C 2.027344 -3.015625 1.753906 -3.015625 1.480469 -2.960938 C 1.480469 -3.125 1.425781 -3.234375 1.425781 -3.34375 C 1.589844 -4.113281 1.753906 -4.878906 2.082031 -5.648438 C 2.46875 -6.527344 3.125 -7.292969 3.566406 -8.117188 C 3.949219 -8.828125 4.386719 -9.488281 4.992188 -10.035156 C 5.59375 -10.640625 6.25 -11.1875 6.910156 -11.679688 C 7.84375 -12.449219 8.828125 -13.105469 9.925781 -13.492188 C 10.695312 -13.765625 11.515625 -13.875 12.285156 -13.765625 C 12.613281 -13.765625 12.886719 -13.601562 13.214844 -13.492188 Z M 13.214844 -13.492188 "/></g></g><g transform="translate(209.693287, 119.637903)"><g><path d="M 1.097656 -2.960938 C 1.261719 -3.511719 1.316406 -4.003906 1.535156 -4.441406 C 2.027344 -5.484375 2.523438 -6.582031 3.125 -7.566406 C 3.785156 -8.664062 4.550781 -9.761719 5.320312 -10.859375 C 6.085938 -11.898438 6.910156 -12.941406 7.789062 -13.984375 C 8.390625 -14.753906 8.390625 -15.738281 7.621094 -16.34375 C 6.910156 -16.945312 5.867188 -16.835938 5.265625 -16.011719 C 4.9375 -15.628906 4.660156 -15.246094 4.332031 -14.863281 C 3.949219 -14.367188 3.511719 -13.929688 3.125 -13.382812 C 2.359375 -12.339844 1.644531 -11.296875 0.988281 -10.199219 C 0.328125 -9.160156 -0.328125 -8.0625 -0.878906 -6.964844 C -1.371094 -6.03125 -1.753906 -5.046875 -1.972656 -4.003906 C -2.140625 -3.015625 -2.304688 -2.140625 -1.753906 -1.207031 C -1.261719 -0.21875 -0.492188 0.109375 0.4375 0.273438 C 0.988281 0.382812 1.535156 0.382812 2.140625 0.21875 C 2.523438 0.0546875 2.960938 -0.0546875 3.398438 -0.21875 C 4.113281 -0.492188 4.769531 -0.824219 5.375 -1.316406 C 6.195312 -1.972656 7.019531 -2.6875 7.789062 -3.453125 C 8.828125 -4.441406 9.871094 -5.539062 10.859375 -6.582031 C 11.515625 -7.292969 11.40625 -8.335938 10.695312 -8.882812 C 10.035156 -9.488281 9.046875 -9.378906 8.390625 -8.71875 C 7.347656 -7.566406 6.25 -6.472656 5.15625 -5.375 C 4.714844 -4.9375 4.222656 -4.605469 3.785156 -4.222656 C 3.125 -3.621094 2.359375 -3.289062 1.535156 -3.015625 C 1.425781 -2.960938 1.316406 -2.960938 1.097656 -2.960938 Z M 13.929688 -22.648438 C 13.820312 -23.253906 13.601562 -23.746094 13.050781 -24.019531 C 12.449219 -24.402344 11.734375 -24.457031 11.023438 -24.128906 C 10.417969 -23.800781 9.871094 -23.417969 9.378906 -22.867188 C 8.773438 -22.210938 8.773438 -21.222656 9.378906 -20.566406 C 9.925781 -20.015625 11.023438 -19.851562 11.734375 -20.234375 C 12.011719 -20.347656 12.285156 -20.511719 12.503906 -20.675781 C 12.886719 -21.003906 13.269531 -21.386719 13.601562 -21.773438 C 13.765625 -21.992188 13.820312 -22.320312 13.929688 -22.648438 Z M 13.929688 -22.648438 "/></g></g><g transform="translate(218.029017, 119.637903)"><g><path d="M 0.601562 -3.234375 C 0.65625 -3.675781 0.714844 -4.058594 0.824219 -4.386719 C 0.933594 -4.769531 1.097656 -5.15625 1.261719 -5.539062 C 1.863281 -6.855469 2.851562 -8.007812 3.785156 -9.160156 C 4.167969 -9.597656 4.660156 -9.925781 5.046875 -10.308594 C 6.140625 -11.351562 7.238281 -12.339844 8.5 -13.050781 C 9.433594 -13.601562 10.308594 -13.984375 11.296875 -14.257812 C 11.957031 -14.421875 12.558594 -14.585938 13.214844 -14.476562 C 13.546875 -14.421875 13.65625 -14.3125 13.546875 -14.039062 C 13.492188 -13.820312 13.382812 -13.601562 13.269531 -13.4375 C 12.941406 -12.722656 13.105469 -11.898438 13.710938 -11.40625 C 14.367188 -10.914062 15.246094 -10.914062 15.792969 -11.460938 C 16.289062 -11.957031 16.5625 -12.558594 16.726562 -13.269531 C 16.835938 -13.820312 16.835938 -14.421875 16.726562 -15.027344 C 16.5625 -15.902344 16.125 -16.5625 15.464844 -17 C 14.421875 -17.769531 13.214844 -17.933594 11.957031 -17.714844 C 10.144531 -17.4375 8.445312 -16.78125 6.800781 -15.847656 C 5.703125 -15.136719 4.660156 -14.367188 3.675781 -13.492188 C 3.179688 -13.050781 2.632812 -12.613281 2.140625 -12.121094 C 1.863281 -11.898438 1.589844 -11.625 1.371094 -11.296875 C 0.878906 -10.695312 0.328125 -10.089844 -0.109375 -9.433594 C -0.492188 -8.882812 -0.933594 -8.390625 -1.207031 -7.789062 C -1.917969 -6.472656 -2.46875 -5.101562 -2.578125 -3.621094 C -2.6875 -3.015625 -2.632812 -2.359375 -2.414062 -1.863281 C -2.195312 -1.371094 -1.753906 -0.933594 -1.371094 -0.492188 C -1.261719 -0.382812 -1.042969 -0.328125 -0.824219 -0.21875 C -0.601562 -0.164062 -0.328125 -0.0546875 -0.0546875 -0.0546875 C 0.492188 0 1.097656 0.0546875 1.589844 -0.0546875 C 2.304688 -0.273438 3.015625 -0.601562 3.675781 -0.988281 C 4.496094 -1.480469 5.265625 -2.140625 6.085938 -2.6875 C 6.195312 -2.796875 6.304688 -2.851562 6.472656 -2.960938 C 6.636719 -1.972656 7.183594 -1.261719 8.0625 -0.65625 C 9.046875 0.109375 10.199219 0.109375 11.351562 -0.21875 C 12.011719 -0.382812 12.613281 -0.714844 13.214844 -1.097656 C 14.09375 -1.699219 14.972656 -2.359375 15.792969 -2.960938 C 16.890625 -3.785156 17.824219 -4.769531 18.753906 -5.757812 C 19.140625 -6.085938 19.46875 -6.472656 19.796875 -6.855469 C 20.511719 -7.675781 21.222656 -8.445312 21.9375 -9.269531 C 22.539062 -9.980469 22.429688 -11.023438 21.714844 -11.570312 C 21.003906 -12.175781 20.070312 -12.066406 19.414062 -11.351562 C 18.480469 -10.308594 17.550781 -9.214844 16.617188 -8.171875 C 16.34375 -7.84375 16.011719 -7.511719 15.683594 -7.238281 C 15.027344 -6.636719 14.367188 -6.03125 13.65625 -5.429688 C 12.777344 -4.605469 11.734375 -3.894531 10.640625 -3.398438 C 10.472656 -3.34375 10.308594 -3.289062 10.144531 -3.289062 C 9.816406 -3.234375 9.597656 -3.398438 9.707031 -3.730469 C 9.761719 -4.113281 9.871094 -4.496094 10.089844 -4.878906 C 10.472656 -5.429688 10.859375 -5.976562 11.242188 -6.527344 C 11.84375 -7.183594 12.449219 -7.84375 12.996094 -8.554688 C 13.214844 -8.882812 13.4375 -9.214844 13.601562 -9.597656 C 13.875 -10.253906 13.601562 -10.96875 13.050781 -11.40625 C 12.503906 -11.789062 11.734375 -11.84375 11.1875 -11.460938 C 10.859375 -11.242188 10.585938 -11.023438 10.308594 -10.804688 C 9.324219 -9.925781 8.335938 -9.046875 7.347656 -8.171875 C 6.25 -7.183594 5.210938 -6.195312 4.058594 -5.265625 C 3.34375 -4.660156 2.578125 -4.113281 1.753906 -3.621094 C 1.480469 -3.453125 1.097656 -3.234375 0.601562 -3.234375 Z M 0.601562 -3.234375 "/></g></g><g transform="translate(235.742443, 119.637903)"><g><path d="M 5.703125 -10.914062 C 5.703125 -11.132812 5.757812 -11.296875 5.757812 -11.40625 C 5.921875 -12.175781 5.484375 -12.996094 4.714844 -13.214844 C 3.949219 -13.546875 3.070312 -13.214844 2.742188 -12.449219 C 2.195312 -11.296875 1.425781 -10.308594 0.769531 -9.269531 C 0.382812 -8.71875 -0.0546875 -8.226562 -0.328125 -7.675781 C -0.933594 -6.527344 -1.753906 -5.59375 -2.414062 -4.550781 C -2.90625 -3.785156 -3.398438 -3.070312 -3.839844 -2.304688 C -4.386719 -1.316406 -3.839844 -0.109375 -2.742188 0.0546875 C -2.027344 0.21875 -1.316406 0 -0.714844 -0.4375 C -0.21875 -0.824219 0.273438 -1.316406 0.769531 -1.753906 C 1.316406 -2.304688 1.863281 -2.90625 2.46875 -3.453125 C 3.234375 -4.167969 4.058594 -4.878906 4.769531 -5.648438 C 6.140625 -6.964844 7.457031 -8.28125 9.046875 -9.324219 C 9.980469 -9.925781 10.96875 -10.585938 12.066406 -10.859375 C 12.230469 -10.914062 12.394531 -10.96875 12.558594 -11.023438 C 12.558594 -10.859375 12.558594 -10.804688 12.503906 -10.804688 C 12.011719 -9.707031 11.515625 -8.664062 11.023438 -7.621094 C 10.96875 -7.457031 10.859375 -7.292969 10.75 -7.074219 C 10.53125 -6.472656 10.253906 -5.867188 10.035156 -5.210938 C 9.707031 -4.332031 9.269531 -3.453125 9.378906 -2.414062 C 9.433594 -1.644531 9.761719 -0.988281 10.199219 -0.382812 C 10.253906 -0.328125 10.363281 -0.273438 10.417969 -0.21875 C 11.023438 0.0546875 11.515625 0.4375 12.230469 0.382812 C 12.613281 0.328125 13.050781 0.382812 13.492188 0.328125 C 14.367188 0.273438 15.191406 -0.0546875 15.957031 -0.546875 C 16.726562 -1.042969 17.492188 -1.535156 18.152344 -2.140625 C 18.753906 -2.742188 19.414062 -3.289062 19.960938 -3.894531 C 20.511719 -4.496094 21.003906 -5.101562 21.550781 -5.703125 C 21.992188 -6.25 22.429688 -6.746094 22.8125 -7.292969 C 23.363281 -8.007812 23.199219 -8.992188 22.539062 -9.542969 C 21.828125 -10.089844 20.839844 -9.980469 20.234375 -9.269531 C 19.578125 -8.445312 18.917969 -7.621094 18.261719 -6.800781 C 17.605469 -6.085938 16.890625 -5.375 16.179688 -4.714844 C 15.628906 -4.222656 15.027344 -3.839844 14.421875 -3.398438 C 13.929688 -3.070312 13.382812 -2.796875 12.667969 -2.851562 C 13.050781 -4.003906 13.382812 -5.101562 13.929688 -6.140625 C 14.640625 -7.457031 15.300781 -8.773438 15.738281 -10.144531 C 16.011719 -10.96875 16.066406 -11.734375 15.847656 -12.558594 C 15.792969 -12.722656 15.738281 -12.941406 15.628906 -13.105469 C 15.082031 -13.984375 13.710938 -14.585938 12.667969 -14.367188 C 12.230469 -14.257812 11.789062 -14.148438 11.351562 -14.039062 C 9.925781 -13.65625 8.664062 -12.996094 7.511719 -12.175781 C 6.910156 -11.789062 6.363281 -11.40625 5.703125 -10.914062 Z M 5.703125 -10.914062 "/></g></g><g transform="translate(255.759162, 119.637903)"><g><path d="M 3.453125 -13.820312 C 3.289062 -13.546875 3.125 -13.328125 3.015625 -13.105469 C 2.46875 -12.285156 1.863281 -11.40625 1.371094 -10.53125 C 0.824219 -9.597656 0.328125 -8.609375 -0.21875 -7.621094 C -0.933594 -6.417969 -1.371094 -5.15625 -1.535156 -3.785156 C -1.535156 -3.234375 -1.480469 -2.6875 -1.316406 -2.195312 C -0.769531 -0.714844 0.988281 0.328125 2.578125 0.164062 C 3.179688 0.109375 3.785156 0 4.386719 -0.109375 C 5.15625 -0.273438 5.8125 -0.546875 6.527344 -0.933594 C 7.84375 -1.644531 8.9375 -2.6875 10.144531 -3.511719 C 10.472656 -3.785156 10.804688 -4.058594 11.078125 -4.332031 C 11.351562 -4.550781 11.570312 -4.824219 11.789062 -5.046875 C 12.121094 -5.375 12.449219 -5.59375 12.722656 -5.921875 C 13.382812 -6.691406 14.039062 -7.511719 14.640625 -8.335938 C 14.808594 -8.554688 15.027344 -8.71875 15.136719 -8.9375 C 15.628906 -9.652344 15.519531 -10.585938 14.863281 -11.132812 C 14.203125 -11.679688 13.269531 -11.625 12.667969 -11.023438 C 12.230469 -10.585938 11.789062 -10.144531 11.460938 -9.597656 C 10.53125 -8.226562 9.324219 -7.019531 7.953125 -5.976562 C 7.019531 -5.210938 6.03125 -4.496094 5.046875 -3.839844 C 4.222656 -3.289062 3.289062 -3.070312 2.304688 -3.070312 C 1.863281 -3.070312 1.699219 -3.234375 1.753906 -3.675781 C 1.753906 -3.839844 1.753906 -4.003906 1.808594 -4.113281 C 1.972656 -4.550781 2.082031 -4.992188 2.25 -5.429688 C 2.6875 -6.25 3.125 -7.074219 3.566406 -7.898438 C 4.167969 -8.992188 4.769531 -10.089844 5.539062 -11.132812 C 6.25 -12.066406 7.019531 -12.941406 7.734375 -13.875 C 7.789062 -13.984375 7.953125 -14.039062 8.117188 -14.039062 C 9.378906 -14.09375 10.695312 -14.09375 12.011719 -14.148438 C 13.214844 -14.203125 14.476562 -14.203125 15.683594 -14.3125 C 16.617188 -14.367188 17.328125 -15.246094 17.164062 -16.125 C 17.054688 -17.054688 16.179688 -17.660156 15.246094 -17.492188 C 15.082031 -17.492188 14.917969 -17.4375 14.753906 -17.4375 C 13.820312 -17.382812 12.886719 -17.382812 11.957031 -17.328125 C 11.460938 -17.328125 10.96875 -17.382812 10.417969 -17.382812 C 10.472656 -17.492188 10.472656 -17.550781 10.472656 -17.605469 C 10.859375 -18.097656 11.1875 -18.644531 11.570312 -19.140625 C 12.449219 -20.179688 13.328125 -21.222656 14.148438 -22.265625 C 14.585938 -22.757812 14.972656 -23.253906 15.355469 -23.746094 C 15.957031 -24.511719 16.5625 -25.335938 17.109375 -26.105469 C 17.4375 -26.542969 17.605469 -26.980469 17.492188 -27.476562 C 17.328125 -28.132812 16.945312 -28.570312 16.289062 -28.738281 C 15.574219 -28.902344 15.027344 -28.679688 14.585938 -28.1875 C 13.984375 -27.367188 13.4375 -26.542969 12.832031 -25.773438 C 12.121094 -24.898438 11.40625 -24.074219 10.695312 -23.199219 C 9.816406 -22.101562 8.992188 -21.003906 8.171875 -19.90625 C 7.511719 -19.085938 6.910156 -18.261719 6.304688 -17.382812 C 6.195312 -17.328125 6.085938 -17.21875 5.921875 -17.21875 C 4.824219 -17.164062 3.675781 -17.109375 2.578125 -17.109375 C 1.535156 -17.109375 0.824219 -16.398438 0.878906 -15.464844 C 0.878906 -14.53125 1.644531 -13.820312 2.632812 -13.875 C 2.90625 -13.875 3.125 -13.875 3.453125 -13.820312 Z M 3.453125 -13.820312 "/></g></g></g><g fill="#40b93c" fill-opacity="1"><g transform="translate(266.946597, 119.637903)"><g/></g><g transform="translate(275.172646, 119.637903)"><g><path d="M 37.125 -38.9375 C 37.292969 -38.9375 36.851562 -38.9375 36.414062 -38.9375 C 31.3125 -38.71875 26.433594 -37.675781 21.9375 -35.207031 C 17.769531 -32.960938 13.929688 -30.273438 10.308594 -27.308594 C 7.789062 -25.226562 5.648438 -22.757812 3.839844 -19.960938 C 2.027344 -17.164062 0.933594 -14.09375 0.382812 -10.859375 C 0.164062 -9.816406 0.273438 -8.773438 0.4375 -7.675781 C 0.933594 -4.9375 2.359375 -2.796875 4.496094 -1.042969 C 5.210938 -0.4375 6.085938 0 7.019531 0.273438 C 9.816406 1.042969 12.449219 0.878906 15.027344 -0.382812 C 16.011719 -0.824219 16.890625 -1.425781 17.769531 -1.972656 C 18.152344 -2.195312 18.535156 -2.46875 18.863281 -2.6875 C 19.195312 -2.90625 19.578125 -2.960938 19.90625 -2.796875 C 20.511719 -2.46875 21.167969 -2.140625 21.773438 -1.808594 C 22.648438 -1.371094 23.527344 -1.042969 24.511719 -0.769531 C 27.367188 0.0546875 30.21875 0.21875 33.179688 -0.273438 C 35.207031 -0.601562 37.070312 -1.316406 38.773438 -2.46875 C 43.105469 -5.539062 44.3125 -10.75 41.625 -15.300781 C 41.40625 -15.683594 41.128906 -16.066406 40.910156 -16.453125 C 40.855469 -16.5625 40.800781 -16.78125 40.691406 -16.890625 C 40.582031 -17.109375 40.746094 -17.492188 41.019531 -17.550781 C 41.347656 -17.660156 41.679688 -17.769531 42.007812 -17.878906 C 44.089844 -18.261719 46.066406 -19.085938 47.875 -20.179688 C 50.289062 -21.660156 51.769531 -23.746094 52.261719 -26.542969 C 52.480469 -27.695312 52.480469 -28.792969 52.371094 -29.941406 C 51.933594 -33.726562 49.90625 -36.25 46.339844 -37.566406 C 43.542969 -38.609375 40.691406 -39.046875 37.125 -38.9375 Z M 37.730469 -35.425781 C 40.417969 -35.425781 43.050781 -35.042969 45.515625 -34 C 46.777344 -33.453125 47.820312 -32.628906 48.3125 -31.3125 C 48.972656 -29.503906 49.027344 -27.695312 48.3125 -25.882812 C 47.875 -24.84375 47.164062 -24.074219 46.230469 -23.472656 C 45.078125 -22.703125 43.761719 -22.101562 42.390625 -21.714844 C 39.757812 -20.949219 37.015625 -20.675781 34.273438 -20.949219 C 34.21875 -20.949219 34.109375 -21.003906 34 -21.003906 C 33.726562 -21.058594 33.453125 -21.550781 33.617188 -21.828125 C 34 -22.648438 34.441406 -23.417969 34.878906 -24.183594 C 35.8125 -25.882812 36.796875 -27.53125 37.785156 -29.230469 C 38.003906 -29.613281 38.167969 -30.050781 38.332031 -30.4375 C 38.554688 -31.148438 38.113281 -32.136719 37.402344 -32.464844 C 36.6875 -32.792969 35.699219 -32.628906 35.261719 -32.027344 C 34.933594 -31.589844 34.660156 -31.148438 34.386719 -30.65625 C 32.574219 -27.476562 30.710938 -24.238281 28.847656 -21.003906 C 26.871094 -17.660156 24.679688 -14.421875 22.320312 -11.351562 C 21.550781 -10.363281 20.675781 -9.488281 19.796875 -8.609375 C 19.414062 -8.171875 18.808594 -8.335938 18.480469 -8.828125 C 17.769531 -9.871094 17.382812 -11.023438 17.164062 -12.230469 C 16.945312 -13.214844 16.890625 -14.203125 16.726562 -15.136719 C 16.671875 -15.574219 16.671875 -16.011719 16.617188 -16.453125 C 16.507812 -17.382812 15.683594 -18.042969 14.753906 -17.933594 C 13.984375 -17.878906 13.160156 -17.164062 13.160156 -16.453125 C 13.105469 -15.355469 13.105469 -14.3125 13.269531 -13.269531 C 13.65625 -10.695312 14.257812 -8.226562 15.847656 -6.085938 C 16.125 -5.703125 16.011719 -5.265625 15.628906 -4.9375 C 14.53125 -4.167969 13.382812 -3.453125 12.066406 -3.179688 C 11.515625 -3.015625 10.859375 -2.960938 10.253906 -2.90625 C 7.347656 -2.796875 5.320312 -4.660156 4.386719 -7.074219 C 3.839844 -8.390625 3.839844 -9.761719 4.113281 -11.1875 C 5.046875 -15.738281 7.457031 -19.359375 10.585938 -22.59375 C 12.339844 -24.347656 14.3125 -25.828125 16.289062 -27.308594 C 18.863281 -29.175781 21.550781 -30.929688 24.402344 -32.355469 C 27.035156 -33.671875 29.777344 -34.605469 32.738281 -34.933594 C 34.386719 -35.097656 36.085938 -35.261719 37.730469 -35.425781 Z M 30.328125 -3.675781 C 28.078125 -3.621094 26.324219 -4.003906 24.679688 -4.496094 C 24.074219 -4.714844 23.582031 -5.046875 23.03125 -5.375 C 22.648438 -5.59375 22.59375 -6.085938 22.921875 -6.527344 C 22.976562 -6.582031 23.03125 -6.636719 23.085938 -6.691406 C 25.335938 -9.101562 27.199219 -11.789062 29.011719 -14.476562 C 29.613281 -15.355469 30.21875 -16.234375 30.820312 -17.109375 C 31.039062 -17.382812 31.367188 -17.550781 31.753906 -17.4375 C 33.5625 -17 35.261719 -16.234375 36.796875 -15.246094 C 38.386719 -14.203125 39.15625 -12.667969 39.484375 -10.859375 C 39.484375 -10.695312 39.484375 -10.472656 39.484375 -10.308594 C 39.210938 -8.609375 38.609375 -7.074219 37.238281 -5.921875 C 35.976562 -4.824219 34.496094 -4.113281 32.738281 -3.894531 C 31.808594 -3.785156 30.820312 -3.675781 30.328125 -3.675781 Z M 30.328125 -3.675781 "/></g></g></g><g fill="#40b93c" fill-opacity="1"><g transform="translate(320.306242, 119.637903)"><g><path d="M 1.097656 -2.960938 C 1.261719 -3.511719 1.316406 -4.003906 1.535156 -4.441406 C 2.027344 -5.484375 2.523438 -6.582031 3.125 -7.566406 C 3.785156 -8.664062 4.550781 -9.761719 5.320312 -10.859375 C 6.085938 -11.898438 6.910156 -12.941406 7.789062 -13.984375 C 8.390625 -14.753906 8.390625 -15.738281 7.621094 -16.34375 C 6.910156 -16.945312 5.867188 -16.835938 5.265625 -16.011719 C 4.9375 -15.628906 4.660156 -15.246094 4.332031 -14.863281 C 3.949219 -14.367188 3.511719 -13.929688 3.125 -13.382812 C 2.359375 -12.339844 1.644531 -11.296875 0.988281 -10.199219 C 0.328125 -9.160156 -0.328125 -8.0625 -0.878906 -6.964844 C -1.371094 -6.03125 -1.753906 -5.046875 -1.972656 -4.003906 C -2.140625 -3.015625 -2.304688 -2.140625 -1.753906 -1.207031 C -1.261719 -0.21875 -0.492188 0.109375 0.4375 0.273438 C 0.988281 0.382812 1.535156 0.382812 2.140625 0.21875 C 2.523438 0.0546875 2.960938 -0.0546875 3.398438 -0.21875 C 4.113281 -0.492188 4.769531 -0.824219 5.375 -1.316406 C 6.195312 -1.972656 7.019531 -2.6875 7.789062 -3.453125 C 8.828125 -4.441406 9.871094 -5.539062 10.859375 -6.582031 C 11.515625 -7.292969 11.40625 -8.335938 10.695312 -8.882812 C 10.035156 -9.488281 9.046875 -9.378906 8.390625 -8.71875 C 7.347656 -7.566406 6.25 -6.472656 5.15625 -5.375 C 4.714844 -4.9375 4.222656 -4.605469 3.785156 -4.222656 C 3.125 -3.621094 2.359375 -3.289062 1.535156 -3.015625 C 1.425781 -2.960938 1.316406 -2.960938 1.097656 -2.960938 Z M 13.929688 -22.648438 C 13.820312 -23.253906 13.601562 -23.746094 13.050781 -24.019531 C 12.449219 -24.402344 11.734375 -24.457031 11.023438 -24.128906 C 10.417969 -23.800781 9.871094 -23.417969 9.378906 -22.867188 C 8.773438 -22.210938 8.773438 -21.222656 9.378906 -20.566406 C 9.925781 -20.015625 11.023438 -19.851562 11.734375 -20.234375 C 12.011719 -20.347656 12.285156 -20.511719 12.503906 -20.675781 C 12.886719 -21.003906 13.269531 -21.386719 13.601562 -21.773438 C 13.765625 -21.992188 13.820312 -22.320312 13.929688 -22.648438 Z M 13.929688 -22.648438 "/></g></g></g><g fill="#40b93c" fill-opacity="1"><g transform="translate(328.641962, 119.637903)"><g><path d="M 3.453125 -13.820312 C 3.289062 -13.546875 3.125 -13.328125 3.015625 -13.105469 C 2.46875 -12.285156 1.863281 -11.40625 1.371094 -10.53125 C 0.824219 -9.597656 0.328125 -8.609375 -0.21875 -7.621094 C -0.933594 -6.417969 -1.371094 -5.15625 -1.535156 -3.785156 C -1.535156 -3.234375 -1.480469 -2.6875 -1.316406 -2.195312 C -0.769531 -0.714844 0.988281 0.328125 2.578125 0.164062 C 3.179688 0.109375 3.785156 0 4.386719 -0.109375 C 5.15625 -0.273438 5.8125 -0.546875 6.527344 -0.933594 C 7.84375 -1.644531 8.9375 -2.6875 10.144531 -3.511719 C 10.472656 -3.785156 10.804688 -4.058594 11.078125 -4.332031 C 11.351562 -4.550781 11.570312 -4.824219 11.789062 -5.046875 C 12.121094 -5.375 12.449219 -5.59375 12.722656 -5.921875 C 13.382812 -6.691406 14.039062 -7.511719 14.640625 -8.335938 C 14.808594 -8.554688 15.027344 -8.71875 15.136719 -8.9375 C 15.628906 -9.652344 15.519531 -10.585938 14.863281 -11.132812 C 14.203125 -11.679688 13.269531 -11.625 12.667969 -11.023438 C 12.230469 -10.585938 11.789062 -10.144531 11.460938 -9.597656 C 10.53125 -8.226562 9.324219 -7.019531 7.953125 -5.976562 C 7.019531 -5.210938 6.03125 -4.496094 5.046875 -3.839844 C 4.222656 -3.289062 3.289062 -3.070312 2.304688 -3.070312 C 1.863281 -3.070312 1.699219 -3.234375 1.753906 -3.675781 C 1.753906 -3.839844 1.753906 -4.003906 1.808594 -4.113281 C 1.972656 -4.550781 2.082031 -4.992188 2.25 -5.429688 C 2.6875 -6.25 3.125 -7.074219 3.566406 -7.898438 C 4.167969 -8.992188 4.769531 -10.089844 5.539062 -11.132812 C 6.25 -12.066406 7.019531 -12.941406 7.734375 -13.875 C 7.789062 -13.984375 7.953125 -14.039062 8.117188 -14.039062 C 9.378906 -14.09375 10.695312 -14.09375 12.011719 -14.148438 C 13.214844 -14.203125 14.476562 -14.203125 15.683594 -14.3125 C 16.617188 -14.367188 17.328125 -15.246094 17.164062 -16.125 C 17.054688 -17.054688 16.179688 -17.660156 15.246094 -17.492188 C 15.082031 -17.492188 14.917969 -17.4375 14.753906 -17.4375 C 13.820312 -17.382812 12.886719 -17.382812 11.957031 -17.328125 C 11.460938 -17.328125 10.96875 -17.382812 10.417969 -17.382812 C 10.472656 -17.492188 10.472656 -17.550781 10.472656 -17.605469 C 10.859375 -18.097656 11.1875 -18.644531 11.570312 -19.140625 C 12.449219 -20.179688 13.328125 -21.222656 14.148438 -22.265625 C 14.585938 -22.757812 14.972656 -23.253906 15.355469 -23.746094 C 15.957031 -24.511719 16.5625 -25.335938 17.109375 -26.105469 C 17.4375 -26.542969 17.605469 -26.980469 17.492188 -27.476562 C 17.328125 -28.132812 16.945312 -28.570312 16.289062 -28.738281 C 15.574219 -28.902344 15.027344 -28.679688 14.585938 -28.1875 C 13.984375 -27.367188 13.4375 -26.542969 12.832031 -25.773438 C 12.121094 -24.898438 11.40625 -24.074219 10.695312 -23.199219 C 9.816406 -22.101562 8.992188 -21.003906 8.171875 -19.90625 C 7.511719 -19.085938 6.910156 -18.261719 6.304688 -17.382812 C 6.195312 -17.328125 6.085938 -17.21875 5.921875 -17.21875 C 4.824219 -17.164062 3.675781 -17.109375 2.578125 -17.109375 C 1.535156 -17.109375 0.824219 -16.398438 0.878906 -15.464844 C 0.878906 -14.53125 1.644531 -13.820312 2.632812 -13.875 C 2.90625 -13.875 3.125 -13.875 3.453125 -13.820312 Z M 3.453125 -13.820312 "/></g></g></g><g fill="#40b93c" fill-opacity="1"><g transform="translate(339.829398, 119.637903)"><g><path d="M 1.808594 -5.429688 C 2.359375 -5.539062 2.851562 -5.59375 3.34375 -5.757812 C 4.332031 -5.976562 5.320312 -6.25 6.25 -6.582031 C 7.019531 -6.855469 7.734375 -7.183594 8.390625 -7.511719 C 9.046875 -7.84375 9.652344 -8.226562 10.253906 -8.609375 C 11.023438 -9.160156 11.84375 -9.707031 12.558594 -10.363281 C 13.105469 -10.914062 13.710938 -11.515625 14.203125 -12.230469 C 14.863281 -13.160156 15.300781 -14.148438 15.574219 -15.246094 C 15.628906 -15.464844 15.574219 -15.738281 15.574219 -15.957031 C 15.519531 -16.179688 15.464844 -16.398438 15.410156 -16.617188 C 15.300781 -17.054688 15.082031 -17.382812 14.695312 -17.714844 C 14.148438 -18.207031 13.492188 -18.480469 12.722656 -18.535156 C 12.066406 -18.535156 11.40625 -18.644531 10.75 -18.316406 C 9.816406 -17.933594 8.882812 -17.550781 7.953125 -17.109375 C 7.019531 -16.617188 6.140625 -16.066406 5.375 -15.355469 C 4.878906 -14.917969 4.386719 -14.53125 3.894531 -14.09375 C 3.34375 -13.601562 2.796875 -13.160156 2.304688 -12.613281 C 1.535156 -11.84375 0.878906 -10.96875 0.273438 -10.035156 C -0.164062 -9.324219 -0.601562 -8.664062 -0.878906 -7.898438 C -1.371094 -6.527344 -1.699219 -5.046875 -1.589844 -3.511719 C -1.480469 -2.523438 -1.097656 -1.644531 -0.382812 -0.933594 C -0.0546875 -0.601562 0.328125 -0.273438 0.714844 -0.109375 C 1.371094 0.0546875 2.027344 0.21875 2.742188 0.21875 C 3.894531 0.273438 5.101562 0.273438 6.304688 -0.109375 C 6.964844 -0.328125 7.621094 -0.546875 8.28125 -0.824219 C 9.324219 -1.261719 10.308594 -1.753906 11.296875 -2.25 C 11.789062 -2.523438 12.285156 -2.796875 12.777344 -3.070312 C 13.328125 -3.453125 13.929688 -3.839844 14.421875 -4.332031 C 15.847656 -5.703125 17.109375 -7.019531 18.699219 -9.214844 C 19.03125 -9.707031 18.753906 -10.035156 18.535156 -10.253906 C 17.988281 -10.859375 17.054688 -10.96875 16.398438 -10.472656 C 15.902344 -10.089844 15.410156 -9.652344 14.972656 -9.214844 C 14.367188 -8.609375 13.820312 -7.898438 13.105469 -7.402344 C 12.613281 -7.074219 12.121094 -6.746094 11.679688 -6.304688 C 11.132812 -5.867188 10.53125 -5.429688 9.871094 -5.15625 C 9.707031 -5.101562 9.542969 -5.046875 9.324219 -4.9375 C 8.226562 -4.332031 7.128906 -3.785156 5.921875 -3.398438 C 4.714844 -3.015625 3.511719 -2.796875 2.25 -3.125 C 1.917969 -3.234375 1.753906 -3.398438 1.644531 -3.675781 C 1.480469 -4.277344 1.753906 -4.878906 1.808594 -5.429688 Z M 3.730469 -9.160156 C 4.332031 -10.089844 5.046875 -10.859375 5.867188 -11.515625 C 6.304688 -11.898438 6.800781 -12.285156 7.238281 -12.667969 C 8.226562 -13.601562 9.433594 -14.257812 10.695312 -14.808594 C 11.023438 -14.972656 11.351562 -15.136719 11.625 -15.246094 C 11.789062 -15.300781 11.957031 -15.300781 12.230469 -15.355469 C 11.957031 -14.585938 11.570312 -13.984375 11.078125 -13.492188 C 9.761719 -12.121094 8.171875 -11.078125 6.527344 -10.144531 C 5.976562 -9.871094 5.375 -9.707031 4.824219 -9.542969 C 4.496094 -9.378906 4.113281 -9.269531 3.730469 -9.160156 Z M 3.730469 -9.160156 "/></g></g><g transform="translate(355.23953, 119.637903)"><g><path d="M 8.554688 -6.910156 C 8.609375 -7.457031 8.71875 -8.007812 8.71875 -8.5 C 8.828125 -9.542969 8.9375 -10.585938 8.992188 -11.625 C 9.046875 -11.957031 9.046875 -12.285156 9.101562 -12.613281 C 9.160156 -13.492188 9.269531 -14.367188 9.378906 -15.246094 C 9.433594 -16.234375 9.652344 -17.21875 10.363281 -18.042969 C 10.96875 -18.808594 10.695312 -19.960938 9.871094 -20.511719 C 9.101562 -21.058594 8.0625 -20.839844 7.511719 -19.960938 C 7.292969 -19.578125 7.019531 -19.140625 6.746094 -18.753906 C 6.304688 -18.152344 5.867188 -17.492188 5.484375 -16.890625 C 5.101562 -16.34375 4.769531 -15.738281 4.332031 -15.246094 C 3.566406 -14.257812 2.742188 -13.328125 1.917969 -12.394531 C 1.371094 -11.734375 0.824219 -11.078125 0.273438 -10.417969 C 0.0546875 -10.199219 -0.109375 -10.035156 -0.4375 -10.089844 C -1.097656 -10.144531 -1.589844 -9.871094 -1.972656 -9.324219 C -2.082031 -9.214844 -2.140625 -9.101562 -2.25 -8.992188 C -3.015625 -7.953125 -3.566406 -6.746094 -3.785156 -5.484375 C -4.058594 -4.222656 -4.058594 -2.90625 -3.34375 -1.699219 C -2.796875 -0.65625 -2.027344 0 -0.878906 0.273438 C -0.328125 0.382812 0.164062 0.328125 0.714844 0.328125 C 1.753906 0.273438 2.796875 0.0546875 3.785156 -0.4375 C 4.878906 -0.933594 5.8125 -1.753906 6.636719 -2.632812 C 6.800781 -2.796875 6.910156 -2.90625 7.128906 -2.90625 C 7.734375 -2.960938 8.335938 -3.015625 8.882812 -3.289062 C 9.160156 -3.398438 9.378906 -3.453125 9.597656 -3.566406 C 10.75 -3.949219 11.898438 -4.496094 12.777344 -5.320312 C 13.984375 -6.472656 14.972656 -7.789062 15.957031 -9.101562 C 16.453125 -9.816406 16.34375 -10.75 15.628906 -11.296875 C 15.027344 -11.84375 14.039062 -11.789062 13.4375 -11.1875 C 13.214844 -10.914062 12.941406 -10.640625 12.722656 -10.308594 C 12.011719 -9.324219 11.132812 -8.445312 10.144531 -7.734375 C 9.652344 -7.402344 9.214844 -7.019531 8.554688 -6.910156 Z M 2.304688 -7.789062 C 3.453125 -9.160156 4.550781 -10.472656 5.648438 -11.84375 C 5.867188 -11.242188 5.429688 -7.457031 5.046875 -6.363281 C 4.003906 -6.527344 3.125 -6.964844 2.304688 -7.789062 Z M 2.851562 -3.621094 C 2.140625 -3.234375 1.480469 -2.90625 0.769531 -2.960938 C 0.601562 -2.960938 0.4375 -2.90625 0.273438 -2.90625 C -0.21875 -2.851562 -0.4375 -2.960938 -0.601562 -3.398438 C -0.769531 -3.949219 -0.714844 -4.441406 -0.601562 -4.992188 C -0.546875 -5.210938 -0.4375 -5.429688 -0.273438 -5.757812 C 0.601562 -4.878906 1.589844 -4.113281 2.851562 -3.621094 Z M 2.851562 -3.621094 "/></g></g></g></svg>